<svg xmlns="http://www.w3.org/2000/svg" viewBox="0 0 48 48" role="img"><path fill="#95BF47" d="m37.4 11.1-4.1-.3c-.1-.4-.4-.6-.7-.7-.4-.1-1.7 0-1.7 0S29.8 7 27 7c-.2 0-.5 0-.7.1C25.5 6 24.4 5.5 23.5 5.5c-6.5 0-9.6 8.1-10.6 12.2l-4.8 1.5c-1.5.5-1.6.5-1.8 1.9L4 38.6 31.1 44l14.7-3.2S37.5 11.2 37.4 11.1ZM25.3 9.7c-2 .9-4.1 3.3-5 8.2l-4.1 1.3c1.1-3.8 3.8-9.2 8-9.2.4 0 .8 0 1.1.1v-.4Zm-2-2.5c.4 0 .8.2 1.2.6h-.3c-5.5 0-8.6 6.8-9.9 12l-3.4 1c1.4-4.8 4.8-13.6 12.4-13.6Zm5.2 9.5-6.4 2c.9-3.7 2.7-5.6 4.3-6.4.4 1.1.7 2.7.7 4.7l1.4-.3Zm.1-5c.2 0 .4-.1.6-.1 1.5 0 2.2.9 2.5 1.5l-3 .9a13 13 0 0 0-.1-2.3Z"/><path fill="#5E8E3E" d="m37.4 11.1-4.1-.3c-.1-.4-.4-.6-.7-.7L31.1 44l14.7-3.2S37.5 11.2 37.4 11.1Z"/><path fill="#fff" d="M27 23.3c-1.1-.6-2.4-.9-3.6-.9-2.9 0-3 1.8-3 2.3 0 2.5 6.6 3.5 6.6 9.4 0 4.7-2.9 7.7-6.9 7.7-4.8 0-7.2-3-7.2-3l1.3-4.2s2.5 2.2 4.6 2.2c1.4 0 2-1.1 2-1.9 0-3.3-5.4-3.4-5.4-8.8 0-4.6 3.3-9 9.9-9 2.5 0 3.7.7 3.7.7l-2 5.5Z"/></svg>
