<svg xmlns="http://www.w3.org/2000/svg" viewBox="0 0 48 48" role="img"><circle cx="24" cy="24" r="22" fill="#25D366"/><path fill="#fff" d="M35.7 12.4A16.4 16.4 0 0 0 9.9 32.2L7.6 40l8-2.1a16.4 16.4 0 0 0 20.1-25.5ZM24 37.6a13.5 13.5 0 0 1-6.9-1.9l-.5-.3-4.7 1.2 1.3-4.6-.3-.5a13.6 13.6 0 1 1 11.1 6.1Z"/><path fill="#fff" d="M31.5 27.4c-.4-.2-2.4-1.2-2.8-1.3-.4-.1-.7-.2-1 .2s-1.1 1.3-1.4 1.6c-.3.3-.5.3-.9.1-2.5-1.2-4.1-2.2-5.8-5-.4-.7.4-.7 1.2-2.2.1-.3.1-.6 0-.8l-1.3-3.2c-.4-.9-.7-.8-1-.8h-.8c-.3 0-.8.1-1.2.6-.4.4-1.6 1.6-1.6 3.9s1.7 4.5 1.9 4.8c.2.3 3.3 5 8 7 3 1.3 4.2 1.4 5.7 1.2.9-.1 2.4-1 2.7-1.9.3-.9.3-1.7.2-1.9-.2-.2-.5-.3-.9-.5Z"/></svg>
